Coordinates
version=1
nRows=10
nColumns=28
inDegrees=yes

Units are S.I. units (second, meters, Newtons, ...)
Angles are in degrees.

endheader
time	pelvis_tilt	pelvis_list	pelvis_rotation	pelvis_tx	pelvis_ty	pelvis_tz	hip_flexion_r	hip_adduction_r	hip_rotation_r	knee_angle_r	ankle_angle_r	subtalar_angle_r	mtp_angle_r	hip_flexion_l	hip_adduction_l	hip_rotation_l	knee_angle_l	socket_flexion	socket_adduction	socket_rotation	socket_tx	socket_ty	socket_tz	foot_flex	lumbar_extension	lumbar_bending	lumbar_rotation
      0.32500000	      3.30906908	     -3.31000574	     -6.58628083	     -0.42129368	      1.01608419	      0.29135057	     12.03446707	      5.19156800	      4.39821973	    -64.37094967	      2.49512933	    -15.93106083	     25.97039925	     -0.40514296	     -1.60062720	     -6.45435820	    -13.37678618	     -4.62589237	      0.00000000	      0.00000000	      0.00000000	     -0.00755029	      0.00000000	      1.62177634	    -11.91278844	     -0.48038849	      7.20941169
      0.32916667	      3.39072670	     -3.52628264	     -6.37611888	     -0.41616394	      1.01646348	      0.29053652	     12.40534927	      5.39310889	      4.21728636	    -63.98433541	      3.53373147	    -14.75773405	     26.55266181	     -1.16232705	     -1.72258128	     -6.17192918	    -12.36393496	     -4.01903536	      0.00000000	      0.00000000	      0.00000000	     -0.00797702	      0.00000000	      1.86320819	    -11.99253733	     -0.09273882	      6.63964924
      0.33333333	      3.44754400	     -3.52158266	     -6.30310461	     -0.41161291	      1.01679640	      0.29014651	     12.93347175	      5.44873265	      4.22888529	    -63.69578802	      3.58935025	    -14.76269210	     26.56239550	     -1.50301567	     -1.66309512	     -6.15726181	    -12.39706438	     -4.11006528	      0.00000000	      0.00000000	      0.00000000	     -0.00773732	      0.00000000	      1.90538460	    -12.08415857	     -0.08927929	      6.63432962
      0.33750000	      3.47588756	     -3.63918332	     -6.18492551	     -0.40689222	      1.01714200	      0.28972935	     13.38211002	      5.66622802	      4.26810718	    -63.24811483	      4.13377115	    -14.71064013	     26.70485084	     -1.89570478	     -1.73869680	     -6.04178611	    -12.24050430	     -4.04730883	      0.00000000	      0.00000000	      0.00000000	     -0.00761204	      0.00000000	      2.16415165	    -12.11169156	      0.06643966	      6.52188443
      0.34166667	      3.49743383	     -3.81040081	     -6.03806563	     -0.40204643	      1.01738467	      0.28910650	     13.83066797	      5.87802424	      4.19423319	    -62.78599283	      4.61589139	    -14.45154175	     26.86946932	     -2.36315843	     -1.85369491	     -5.90482505	    -11.86737987	     -3.87875199	      0.00000000	      0.00000000	      0.00000000	     -0.00779849	      0.00000000	      2.21750934	    -12.15618150	      0.34928466	      6.29894501
      0.34583333	      3.55000414	     -3.80583183	     -5.97647613	     -0.39761927	      1.01758813	      0.28873951	     14.36139629	      5.91470381	      4.19685671	    -62.44339452	      4.66094887	    -14.43930318	     26.87618507	     -2.69470118	     -1.79655334	     -5.88675467	    -11.88526546	     -3.95059206	      0.00000000	      0.00000000	      0.00000000	     -0.00763445	      0.00000000	      2.25983559	    -12.26542737	      0.35138818	      6.28235313
      0.35000000	      3.59805107	     -4.01696171	     -5.77348481	     -0.39266432	      1.01787389	      0.28810048	     14.70851053	      6.15297781	      4.08153067	    -61.84714374	      5.24584501	    -14.06777654	     27.04613869	     -3.28295003	     -1.95475692	     -5.65301844	    -11.24196961	     -3.58632550	      0.00000000	      0.00000000	      0.00000000	     -0.00786951	      0.00000000	      2.43176400	    -12.31867385	      0.68975740	      5.90509799
      0.35416667	      3.64305189	     -4.00442399	     -5.71254999	     -0.38825533	      1.01800649	      0.28775812	     15.22466321	      6.18071462	      4.09357088	    -61.44446431	      5.29187931	    -14.06306519	     27.04774406	     -3.60687609	     -1.89252124	     -5.63900792	    -11.25876869	     -3.66128792	      0.00000000	      0.00000000	      0.00000000	     -0.00771475	      0.00000000	      2.47903795	    -12.42395757	      0.67933756	      5.89220664
      0.35833333	      3.67682686	     -3.99520669	     -5.64360052	     -0.38380025	      1.01814538	      0.28741580	     15.71368762	      6.21555196	      4.11604827	    -60.96530927	      5.37817813	    -14.06008580	     27.05353668	     -3.92338331	     -1.83569100	     -5.61379561	    -11.26317152	     -3.71922070	      0.00000000	      0.00000000	      0.00000000	     -0.00753331	      0.00000000	      2.55454035	    -12.51140093	      0.67775497	      5.86963287
      0.36250000	      3.70187023	     -3.99321061	     -5.56452003	     -0.37931879	      1.01827050	      0.28708096	     16.18177333	      6.26167940	      4.14288435	    -60.43246633	      5.49927360	    -14.05907620	     27.06257999	     -4.23658250	     -1.78976988	     -5.57756639	    -11.25197580	     -3.76424192	      0.00000000	      0.00000000	      0.00000000	     -0.00735354	      0.00000000	      2.64983293	    -12.58374493	      0.68463913	      5.83641276
